# xmcd
#
# Track frame offsets:
# 150
# 19028
# 32311
# 50061
# 53228
# 69468
# 88059
# 101045
# 125761
# 138349
# 169654
# 183240
# 207724
# 227330
# 239648
# 258478
# 296155
#
# Disc length: 4175 seconds
#
#
# Revision: 0
# Processed by: cddbd v1.5.1PL0 Copyright (c) Steve Scherf et al.
# Submitted via: FreeRIP 2.30 
#
DISCID=fb104d11
DTITLE=Various Artist - Crabb Fest Live 2003
DYEAR=2004
DGENRE=Contemporary Christian
TTITLE0=Don't You Wanna Go - The Crabb Family
TTITLE1=When We All Get To Heaven - Brian Free and Assurance
TTITLE2=So Close To Home - Brian Free and Assurance
TTITLE3=The Call (acappella) - Mike Bowling
TTITLE4=I Take Him Back - Mike Bowling
TTITLE5=Please Come Down To Me - The Crabb Family
TTITLE6=While I Wait - LordSong
TTITLE7=I Refuse To Be Afraid - LordSong
TTITLE8=The Walk - The Crabb Family
TTITLE9=The Cross - The Crabb Family
TTITLE10=Damascus Road - The Perrys
TTITLE11=Calvary Answers For Me - The Perrys
TTITLE12=You Let The Light Back In - The Crabb Family
TTITLE13=Hard Knocks - Gerald Crabb
TTITLE14=When The Savior Wipes The Tears From Our Eyes - The Hoskins Family
TTITLE15=Safe Thus Far - The Hoskins Family
TTITLE16=Through The Fire - The Crabb Family
EXTD=
EXTT0=
EXTT1=
EXTT2=
EXTT3=
EXTT4=
EXTT5=
EXTT6=
EXTT7=
EXTT8=
EXTT9=
EXTT10=
EXTT11=
EXTT12=
EXTT13=
EXTT14=
EXTT15=
EXTT16=
PLAYORDER=
